<svg id="visual" viewBox="0 0 900 600" width="900" height="600" xmlns="http://www.w3.org/2000/svg" xmlns:xlink="http://www.w3.org/1999/xlink" version="1.1"><path d="M0 384L21.5 383.8C43 383.7 86 383.3 128.8 386.7C171.7 390 214.3 397 257.2 410C300 423 343 442 385.8 451C428.7 460 471.3 459 514.2 450.5C557 442 600 426 642.8 433.2C685.7 440.3 728.3 470.7 771.2 483.7C814 496.7 857 492.3 878.5 490.2L900 488L900 601L878.5 601C857 601 814 601 771.2 601C728.3 601 685.7 601 642.8 601C600 601 557 601 514.2 601C471.3 601 428.7 601 385.8 601C343 601 300 601 257.2 601C214.3 601 171.7 601 128.8 601C86 601 43 601 21.5 601L0 601Z" fill="#2668C0" stroke-linecap="round" stroke-linejoin="miter"></path></svg>